<svg xmlns="http://www.w3.org/2000/svg" xmlns:xlink="http://www.w3.org/1999/xlink" width="200" zoomAndPan="magnify" viewBox="0 0 150 74.999997" height="100" preserveAspectRatio="xMidYMid meet" version="1.0"><defs><g/><clipPath id="9433487ed8"><path d="M 25 8 L 31 8 L 31 61.5 L 25 61.5 Z M 25 8 " clip-rule="nonzero"/></clipPath><clipPath id="ccb731c134"><path d="M 29 13 L 33.75 13 L 33.75 61 L 29 61 Z M 29 13 " clip-rule="nonzero"/></clipPath><clipPath id="db57fba282"><path d="M 0 8 L 27 8 L 27 61.5 L 0 61.5 Z M 0 8 " clip-rule="nonzero"/></clipPath></defs><g clip-path="url(#9433487ed8)"><path fill="#f14624" d="M 26.050781 8.039062 L 25.203125 39.5 L 26.050781 61.476562 L 29.902344 60.398438 L 30.921875 38.914062 L 29.902344 13.085938 L 26.050781 8.039062 " fill-opacity="1" fill-rule="nonzero"/></g><g clip-path="url(#ccb731c134)"><path fill="#f68712" d="M 33.75 13.085938 L 29.902344 13.085938 L 29.902344 60.398438 L 33.75 60.273438 L 33.75 13.085938 " fill-opacity="1" fill-rule="nonzero"/></g><g clip-path="url(#db57fba282)"><path fill="#f68712" d="M 24.519531 33.777344 C 24.488281 34.167969 24.117188 34.445312 23.734375 34.363281 L 18.109375 33.152344 L 23.863281 33.074219 C 24.246094 33.070312 24.550781 33.394531 24.519531 33.777344 Z M 18.015625 34.167969 L 21.242188 35.460938 C 21.460938 35.546875 21.554688 35.8125 21.4375 36.019531 C 21.324219 36.21875 21.0625 36.28125 20.875 36.148438 Z M 22.042969 40.367188 C 21.6875 40.667969 21.148438 40.589844 20.898438 40.199219 L 17.191406 34.472656 L 22.078125 39.226562 C 22.402344 39.542969 22.386719 40.070312 22.042969 40.367188 Z M 21.660156 30.664062 L 18.347656 31.714844 L 21.34375 29.949219 C 21.542969 29.832031 21.800781 29.910156 21.898438 30.121094 C 22 30.335938 21.886719 30.589844 21.660156 30.664062 Z M 17.433594 30.804688 L 21.09375 25.046875 C 21.335938 24.664062 21.855469 24.574219 22.214844 24.855469 C 22.582031 25.140625 22.613281 25.683594 22.28125 26.011719 Z M 17.199219 26.867188 L 16.621094 30.300781 L 16.421875 26.824219 C 16.40625 26.59375 16.59375 26.402344 16.828125 26.410156 C 17.0625 26.417969 17.238281 26.632812 17.199219 26.867188 Z M 12.816406 24.429688 C 12.632812 24.015625 12.84375 23.53125 13.273438 23.386719 C 13.714844 23.238281 14.183594 23.511719 14.273438 23.96875 L 15.574219 30.667969 Z M 11.679688 29.710938 C 11.46875 29.613281 11.386719 29.359375 11.5 29.15625 C 11.617188 28.949219 11.890625 28.894531 12.078125 29.035156 L 14.851562 31.136719 Z M 20.214844 9.929688 C 20.503906 10.648438 20.761719 11.402344 20.980469 12.179688 C 21.046875 12.40625 21.105469 12.636719 21.164062 12.863281 C 21.246094 13.195312 21.050781 13.535156 20.722656 13.628906 C 20.378906 13.722656 20.023438 13.519531 19.933594 13.171875 C 19.882812 12.957031 19.824219 12.742188 19.765625 12.527344 C 19.550781 11.765625 19.296875 11.027344 19.003906 10.320312 L 4.824219 14.90625 C 4.9375 15.484375 5.074219 16.066406 5.238281 16.648438 C 5.300781 16.863281 5.363281 17.074219 5.429688 17.285156 C 5.539062 17.628906 5.34375 17.992188 5 18.089844 C 4.671875 18.179688 4.328125 17.996094 4.222656 17.667969 C 4.152344 17.445312 4.085938 17.222656 4.019531 16.992188 C 3.859375 16.425781 3.722656 15.859375 3.613281 15.296875 L 0 16.464844 L 2.09375 41.867188 C 2.601562 41.339844 2.941406 40.90625 3.019531 40.617188 C 3.871094 37.398438 3.835938 36.5625 4.414062 33.53125 C 4.785156 31.605469 6.722656 31.140625 6.960938 34.101562 C 7.023438 34.878906 7.144531 36.246094 7.550781 37.070312 C 7.707031 36.953125 13.878906 32.8125 15.699219 31.597656 C 17.085938 30.671875 18.683594 32.339844 16.875 33.78125 C 15.496094 34.875 14.015625 36.054688 13.335938 36.597656 L 12.480469 37.234375 L 13.855469 36.671875 C 14.269531 36.742188 14.65625 36.972656 14.90625 37.351562 C 15.214844 37.8125 15.246094 38.378906 15.042969 38.851562 L 13.804688 39.773438 L 15.121094 39.230469 C 15.257812 39.332031 15.382812 39.457031 15.480469 39.605469 C 15.554688 39.714844 15.609375 39.828125 15.648438 39.945312 C 15.714844 40.066406 15.746094 40.207031 15.730469 40.375 C 15.742188 40.691406 15.65625 41.003906 15.476562 41.269531 L 14.246094 42.15625 L 15.621094 41.617188 C 15.800781 41.71875 15.957031 41.863281 16.078125 42.042969 C 16.144531 42.144531 16.191406 42.246094 16.230469 42.351562 C 16.230469 42.351562 17.667969 43.433594 14.210938 46.242188 C 10.75 49.046875 8.582031 49.488281 7.925781 50.234375 C 7.472656 50.75 4.792969 53.496094 3.1875 55.136719 L 3.414062 57.921875 L 26.050781 61.476562 L 26.050781 8.039062 L 20.214844 9.929688 " fill-opacity="1" fill-rule="nonzero"/></g><path fill="#f14624" d="M 14.210938 46.242188 C 17.667969 43.433594 16.230469 42.351562 16.230469 42.351562 C 16.433594 42.929688 16.230469 43.59375 15.699219 43.949219 C 15.539062 44.054688 10.117188 48.28125 8.269531 48.402344 C 7.449219 48.453125 5.179688 50.046875 2.910156 51.800781 L 3.1875 55.136719 C 4.792969 53.496094 7.472656 50.75 7.925781 50.234375 C 8.582031 49.488281 10.75 49.046875 14.210938 46.242188 " fill-opacity="1" fill-rule="nonzero"/><path fill="#40b93c" d="M 18.878906 3.578125 C 18.261719 3.402344 17.628906 3.351562 16.992188 3.410156 C 17.40625 3.792969 17.804688 4.214844 18.1875 4.664062 C 18.308594 4.6875 18.429688 4.714844 18.546875 4.75 C 20.089844 5.1875 21.308594 6.542969 22.003906 8.589844 L 23.101562 8.234375 C 22.320312 5.867188 20.859375 4.140625 18.878906 3.578125 Z M 14.46875 4.210938 C 11.773438 5.660156 9.316406 8.917969 8.066406 13.09375 L 9.382812 12.667969 C 10.253906 10.148438 11.613281 7.972656 13.277344 6.480469 C 14 5.828125 14.742188 5.34375 15.476562 5.027344 C 15.457031 5.007812 15.433594 4.984375 15.410156 4.964844 C 15.097656 4.683594 14.785156 4.433594 14.46875 4.210938 " fill-opacity="1" fill-rule="nonzero"/><path fill="#40b93c" d="M 21.863281 13.082031 C 21.808594 12.855469 21.746094 12.628906 21.683594 12.398438 C 19.582031 4.96875 14.085938 0.0195312 9.398438 1.351562 C 4.714844 2.679688 2.621094 9.78125 4.722656 17.210938 C 4.785156 17.441406 4.851562 17.664062 4.925781 17.886719 C 5.027344 18.214844 5.371094 18.402344 5.699219 18.308594 C 6.042969 18.210938 6.238281 17.847656 6.128906 17.503906 C 6.0625 17.292969 6 17.082031 5.9375 16.867188 C 4.996094 13.535156 4.925781 10.195312 5.734375 7.453125 C 6.488281 4.894531 7.921875 3.199219 9.773438 2.671875 C 11.625 2.144531 13.734375 2.839844 15.714844 4.621094 C 17.835938 6.527344 19.523438 9.414062 20.464844 12.746094 C 20.527344 12.960938 20.582031 13.175781 20.636719 13.390625 C 20.722656 13.738281 21.078125 13.945312 21.421875 13.847656 C 21.75 13.753906 21.945312 13.414062 21.863281 13.082031 " fill-opacity="1" fill-rule="nonzero"/><g fill="#1f763b" fill-opacity="1"><g transform="translate(38.801103, 30.627588)"><g><path d="M 1.015625 -5.171875 C 1.015625 -5.492188 0.96875 -5.734375 0.875 -5.890625 C 0.789062 -6.046875 0.613281 -6.125 0.34375 -6.125 L 0.15625 -6.125 L 0.15625 -6.328125 L 3.96875 -6.328125 C 4.519531 -6.328125 4.796875 -6.070312 4.796875 -5.5625 L 4.796875 -4.84375 L 4.59375 -4.84375 C 4.59375 -5.570312 4.195312 -5.9375 3.40625 -5.9375 L 1.875 -5.9375 L 1.875 -3.40625 L 4.046875 -3.40625 L 4.046875 -3.015625 L 1.875 -3.015625 L 1.875 0 L 1.015625 0 Z M 1.015625 -5.171875 "/></g></g></g><g fill="#1f763b" fill-opacity="1"><g transform="translate(43.844954, 30.627588)"><g><path d="M 0.765625 -3.359375 C 0.765625 -3.679688 0.71875 -3.921875 0.625 -4.078125 C 0.539062 -4.234375 0.363281 -4.3125 0.09375 -4.3125 L 0 -4.3125 L 0 -4.5 L 0.765625 -4.5 C 1.003906 -4.5 1.1875 -4.460938 1.3125 -4.390625 C 1.4375 -4.328125 1.523438 -4.222656 1.578125 -4.078125 L 1.625 -4.078125 C 1.738281 -4.222656 1.894531 -4.34375 2.09375 -4.4375 C 2.289062 -4.539062 2.519531 -4.59375 2.78125 -4.59375 C 3.03125 -4.59375 3.222656 -4.546875 3.359375 -4.453125 C 3.460938 -4.367188 3.570312 -4.222656 3.6875 -4.015625 L 3.296875 -3.734375 C 3.234375 -3.828125 3.132812 -3.894531 3 -3.9375 C 2.863281 -3.988281 2.707031 -4.015625 2.53125 -4.015625 C 2.34375 -4.015625 2.164062 -3.972656 2 -3.890625 C 1.84375 -3.804688 1.71875 -3.691406 1.625 -3.546875 L 1.625 0 L 0.765625 0 Z M 0.765625 -3.359375 "/></g></g></g><g fill="#1f763b" fill-opacity="1"><g transform="translate(47.644591, 30.627588)"><g><path d="M 1.765625 0.09375 C 1.554688 0.09375 1.347656 0.0507812 1.140625 -0.03125 C 0.929688 -0.113281 0.75 -0.253906 0.59375 -0.453125 C 0.445312 -0.648438 0.375 -0.914062 0.375 -1.25 C 0.375 -1.726562 0.597656 -2.070312 1.046875 -2.28125 C 1.492188 -2.488281 2.082031 -2.59375 2.8125 -2.59375 L 3.109375 -2.59375 C 3.109375 -3.21875 3.019531 -3.644531 2.84375 -3.875 C 2.675781 -4.101562 2.425781 -4.21875 2.09375 -4.21875 C 1.8125 -4.21875 1.582031 -4.15625 1.40625 -4.03125 C 1.238281 -3.90625 1.117188 -3.695312 1.046875 -3.40625 L 0.609375 -3.40625 C 0.609375 -3.613281 0.617188 -3.78125 0.640625 -3.90625 C 0.671875 -4.03125 0.742188 -4.148438 0.859375 -4.265625 C 0.972656 -4.378906 1.160156 -4.460938 1.421875 -4.515625 C 1.679688 -4.566406 1.972656 -4.59375 2.296875 -4.59375 C 2.804688 -4.59375 3.210938 -4.453125 3.515625 -4.171875 C 3.816406 -3.898438 3.96875 -3.375 3.96875 -2.59375 L 3.96875 0 L 3.484375 0 L 3.15625 -0.4375 L 3.109375 -0.4375 C 2.992188 -0.28125 2.820312 -0.148438 2.59375 -0.046875 C 2.375 0.046875 2.097656 0.09375 1.765625 0.09375 Z M 2.1875 -0.328125 C 2.40625 -0.328125 2.582031 -0.378906 2.71875 -0.484375 C 2.863281 -0.585938 2.992188 -0.726562 3.109375 -0.90625 L 3.109375 -2.203125 L 2.8125 -2.203125 C 2.34375 -2.203125 1.96875 -2.113281 1.6875 -1.9375 C 1.414062 -1.757812 1.28125 -1.53125 1.28125 -1.25 C 1.28125 -0.945312 1.367188 -0.71875 1.546875 -0.5625 C 1.722656 -0.40625 1.9375 -0.328125 2.1875 -0.328125 Z M 2.1875 -0.328125 "/></g></g></g><g fill="#1f763b" fill-opacity="1"><g transform="translate(52.24818, 30.627588)"><g><path d="M 2.171875 0.09375 C 1.617188 0.09375 1.191406 -0.125 0.890625 -0.5625 C 0.597656 -1 0.453125 -1.5625 0.453125 -2.25 C 0.453125 -2.9375 0.601562 -3.5 0.90625 -3.9375 C 1.21875 -4.375 1.671875 -4.59375 2.265625 -4.59375 C 2.515625 -4.59375 2.726562 -4.566406 2.90625 -4.515625 C 3.09375 -4.460938 3.28125 -4.394531 3.46875 -4.3125 L 3.46875 -5.171875 C 3.46875 -5.492188 3.421875 -5.734375 3.328125 -5.890625 C 3.242188 -6.046875 3.066406 -6.125 2.796875 -6.125 L 2.609375 -6.125 L 2.609375 -6.328125 L 3.46875 -6.328125 C 3.707031 -6.328125 3.882812 -6.296875 4 -6.234375 C 4.113281 -6.171875 4.195312 -6.054688 4.25 -5.890625 C 4.300781 -5.734375 4.328125 -5.492188 4.328125 -5.171875 L 4.328125 0 L 3.84375 0 L 3.515625 -0.4375 L 3.46875 -0.4375 C 3.320312 -0.269531 3.15625 -0.140625 2.96875 -0.046875 C 2.78125 0.046875 2.515625 0.09375 2.171875 0.09375 Z M 2.46875 -0.28125 C 2.726562 -0.28125 2.921875 -0.328125 3.046875 -0.421875 C 3.179688 -0.523438 3.320312 -0.671875 3.46875 -0.859375 L 3.46875 -3.921875 C 3.28125 -4.015625 3.113281 -4.085938 2.96875 -4.140625 C 2.832031 -4.191406 2.695312 -4.21875 2.5625 -4.21875 C 2.144531 -4.21875 1.835938 -4.035156 1.640625 -3.671875 C 1.453125 -3.316406 1.359375 -2.84375 1.359375 -2.25 C 1.359375 -1.664062 1.453125 -1.191406 1.640625 -0.828125 C 1.828125 -0.460938 2.101562 -0.28125 2.46875 -0.28125 Z M 2.46875 -0.28125 "/></g></g></g><g fill="#1f763b" fill-opacity="1"><g transform="translate(57.263315, 30.627588)"><g><path d="M 2.4375 0.09375 C 2.007812 0.09375 1.644531 -0.0078125 1.34375 -0.21875 C 1.039062 -0.425781 0.8125 -0.707031 0.65625 -1.0625 C 0.507812 -1.414062 0.4375 -1.8125 0.4375 -2.25 C 0.4375 -2.6875 0.507812 -3.082031 0.65625 -3.4375 C 0.8125 -3.789062 1.035156 -4.070312 1.328125 -4.28125 C 1.617188 -4.488281 1.957031 -4.59375 2.34375 -4.59375 C 2.988281 -4.59375 3.46875 -4.410156 3.78125 -4.046875 C 4.101562 -3.691406 4.265625 -3.171875 4.265625 -2.484375 L 4.25 -2.109375 L 1.34375 -2.109375 C 1.34375 -1.566406 1.457031 -1.125 1.6875 -0.78125 C 1.914062 -0.445312 2.234375 -0.28125 2.640625 -0.28125 C 2.929688 -0.28125 3.179688 -0.34375 3.390625 -0.46875 C 3.597656 -0.601562 3.789062 -0.796875 3.96875 -1.046875 L 4.171875 -0.90625 C 3.953125 -0.5625 3.703125 -0.304688 3.421875 -0.140625 C 3.140625 0.015625 2.8125 0.09375 2.4375 0.09375 Z M 3.359375 -2.484375 C 3.359375 -3.046875 3.273438 -3.472656 3.109375 -3.765625 C 2.941406 -4.066406 2.6875 -4.21875 2.34375 -4.21875 C 2.15625 -4.21875 1.984375 -4.140625 1.828125 -3.984375 C 1.671875 -3.835938 1.550781 -3.632812 1.46875 -3.375 C 1.382812 -3.113281 1.34375 -2.816406 1.34375 -2.484375 Z M 3.359375 -2.484375 "/></g></g></g><g fill="#1f763b" fill-opacity="1"><g transform="translate(61.9339, 30.627588)"><g><path d="M 0.734375 -5.171875 C 0.734375 -5.492188 0.6875 -5.734375 0.59375 -5.890625 C 0.5 -6.046875 0.320312 -6.125 0.0625 -6.125 L -0.140625 -6.125 L -0.140625 -6.328125 L 0.734375 -6.328125 C 0.960938 -6.328125 1.132812 -6.296875 1.25 -6.234375 C 1.375 -6.171875 1.460938 -6.054688 1.515625 -5.890625 C 1.566406 -5.734375 1.59375 -5.492188 1.59375 -5.171875 L 1.59375 0 L 0.734375 0 Z M 0.734375 -5.171875 "/></g></g></g><g fill="#1f763b" fill-opacity="1"><g transform="translate(64.250053, 30.627588)"><g/></g></g><g fill="#1f763b" fill-opacity="1"><g transform="translate(66.642769, 30.627588)"><g><path d="M 2.40625 0.1875 C 1.769531 0.1875 1.273438 0.046875 0.921875 -0.234375 C 0.578125 -0.515625 0.40625 -0.882812 0.40625 -1.34375 C 0.40625 -1.59375 0.460938 -1.816406 0.578125 -2.015625 C 0.703125 -2.210938 0.847656 -2.382812 1.015625 -2.53125 C 1.191406 -2.6875 1.441406 -2.882812 1.765625 -3.125 C 1.554688 -3.3125 1.394531 -3.488281 1.28125 -3.65625 C 1.125 -3.84375 1 -4.050781 0.90625 -4.28125 C 0.820312 -4.519531 0.78125 -4.765625 0.78125 -5.015625 C 0.78125 -5.472656 0.9375 -5.835938 1.25 -6.109375 C 1.5625 -6.378906 1.984375 -6.515625 2.515625 -6.515625 C 3.003906 -6.515625 3.390625 -6.390625 3.671875 -6.140625 C 3.953125 -5.890625 4.09375 -5.566406 4.09375 -5.171875 C 4.09375 -4.890625 4.03125 -4.640625 3.90625 -4.421875 C 3.78125 -4.203125 3.625 -4.003906 3.4375 -3.828125 C 3.25 -3.660156 3 -3.46875 2.6875 -3.25 L 4.609375 -1.15625 C 4.847656 -1.394531 5.0625 -1.664062 5.25 -1.96875 C 5.34375 -2.113281 5.421875 -2.238281 5.484375 -2.34375 L 5.671875 -2.203125 C 5.597656 -2.054688 5.523438 -1.921875 5.453125 -1.796875 C 5.265625 -1.472656 5.050781 -1.179688 4.8125 -0.921875 L 5.671875 0 L 4.609375 0 L 4.234375 -0.40625 C 3.691406 -0.0078125 3.082031 0.1875 2.40625 0.1875 Z M 2.390625 -3.59375 C 2.679688 -3.832031 2.898438 -4.066406 3.046875 -4.296875 C 3.203125 -4.523438 3.28125 -4.785156 3.28125 -5.078125 C 3.28125 -5.441406 3.203125 -5.710938 3.046875 -5.890625 C 2.890625 -6.078125 2.710938 -6.171875 2.515625 -6.171875 C 2.285156 -6.171875 2.09375 -6.078125 1.9375 -5.890625 C 1.78125 -5.710938 1.703125 -5.421875 1.703125 -5.015625 C 1.703125 -4.796875 1.75 -4.582031 1.84375 -4.375 C 1.9375 -4.164062 2.039062 -3.988281 2.15625 -3.84375 C 2.269531 -3.707031 2.347656 -3.625 2.390625 -3.59375 Z M 2.59375 -0.140625 C 3.132812 -0.140625 3.613281 -0.300781 4.03125 -0.625 L 2.0625 -2.78125 C 1.820312 -2.570312 1.632812 -2.363281 1.5 -2.15625 C 1.375 -1.945312 1.3125 -1.707031 1.3125 -1.4375 C 1.3125 -0.570312 1.738281 -0.140625 2.59375 -0.140625 Z M 2.59375 -0.140625 "/></g></g></g><g fill="#1f763b" fill-opacity="1"><g transform="translate(72.538426, 30.627588)"><g/></g></g><g fill="#1f763b" fill-opacity="1"><g transform="translate(74.931142, 30.627588)"><g><path d="M 2.703125 0.15625 C 2.347656 0.15625 2 0.109375 1.65625 0.015625 C 1.320312 -0.078125 1.046875 -0.210938 0.828125 -0.390625 C 0.617188 -0.566406 0.515625 -0.769531 0.515625 -1 L 0.515625 -2.03125 L 0.6875 -2.03125 C 0.800781 -1.394531 1.015625 -0.929688 1.328125 -0.640625 C 1.640625 -0.359375 2.066406 -0.21875 2.609375 -0.21875 C 2.953125 -0.21875 3.25 -0.300781 3.5 -0.46875 C 3.75 -0.644531 3.875 -0.890625 3.875 -1.203125 C 3.875 -1.460938 3.789062 -1.691406 3.625 -1.890625 C 3.457031 -2.085938 3.1875 -2.296875 2.8125 -2.515625 L 1.640625 -3.21875 C 1.234375 -3.457031 0.941406 -3.703125 0.765625 -3.953125 C 0.597656 -4.203125 0.515625 -4.503906 0.515625 -4.859375 C 0.515625 -5.359375 0.6875 -5.753906 1.03125 -6.046875 C 1.375 -6.347656 1.820312 -6.5 2.375 -6.5 C 2.695312 -6.5 3.019531 -6.453125 3.34375 -6.359375 C 3.664062 -6.265625 3.925781 -6.128906 4.125 -5.953125 C 4.332031 -5.773438 4.4375 -5.570312 4.4375 -5.34375 L 4.4375 -4.3125 L 4.265625 -4.3125 C 4.160156 -4.957031 3.957031 -5.414062 3.65625 -5.6875 C 3.351562 -5.96875 2.925781 -6.109375 2.375 -6.109375 C 2.082031 -6.109375 1.820312 -6.019531 1.59375 -5.84375 C 1.375 -5.664062 1.265625 -5.429688 1.265625 -5.140625 C 1.265625 -4.878906 1.34375 -4.660156 1.5 -4.484375 C 1.664062 -4.316406 1.941406 -4.117188 2.328125 -3.890625 L 3.5 -3.1875 C 3.9375 -2.925781 4.242188 -2.679688 4.421875 -2.453125 C 4.597656 -2.234375 4.6875 -1.953125 4.6875 -1.609375 C 4.6875 -1.066406 4.507812 -0.632812 4.15625 -0.3125 C 3.800781 0 3.316406 0.15625 2.703125 0.15625 Z M 2.703125 0.15625 "/></g></g></g><g fill="#1f763b" fill-opacity="1"><g transform="translate(80.03242, 30.627588)"><g><path d="M 0.828125 -3.359375 C 0.828125 -3.679688 0.78125 -3.921875 0.6875 -4.078125 C 0.601562 -4.234375 0.425781 -4.3125 0.15625 -4.3125 L -0.03125 -4.3125 L -0.03125 -4.5 L 0.828125 -4.5 C 1.078125 -4.5 1.265625 -4.460938 1.390625 -4.390625 C 1.515625 -4.328125 1.597656 -4.222656 1.640625 -4.078125 L 1.703125 -4.078125 C 1.816406 -4.222656 1.976562 -4.34375 2.1875 -4.4375 C 2.394531 -4.539062 2.660156 -4.59375 2.984375 -4.59375 C 3.535156 -4.59375 3.960938 -4.367188 4.265625 -3.921875 C 4.566406 -3.484375 4.71875 -2.925781 4.71875 -2.25 C 4.71875 -1.5625 4.5625 -1 4.25 -0.5625 C 3.9375 -0.125 3.484375 0.09375 2.890625 0.09375 C 2.648438 0.09375 2.4375 0.0664062 2.25 0.015625 C 2.0625 -0.0351562 1.878906 -0.101562 1.703125 -0.1875 L 1.703125 1.8125 L 0.828125 1.8125 Z M 2.609375 -0.28125 C 3.015625 -0.28125 3.3125 -0.457031 3.5 -0.8125 C 3.695312 -1.175781 3.796875 -1.65625 3.796875 -2.25 C 3.796875 -2.832031 3.703125 -3.304688 3.515625 -3.671875 C 3.335938 -4.035156 3.066406 -4.21875 2.703125 -4.21875 C 2.273438 -4.21875 1.941406 -4.023438 1.703125 -3.640625 L 1.703125 -0.578125 C 1.890625 -0.484375 2.050781 -0.410156 2.1875 -0.359375 C 2.332031 -0.304688 2.472656 -0.28125 2.609375 -0.28125 Z M 2.609375 -0.28125 "/></g></g></g><g fill="#1f763b" fill-opacity="1"><g transform="translate(85.18155, 30.627588)"><g><path d="M 1.203125 -5.078125 C 1.054688 -5.078125 0.925781 -5.132812 0.8125 -5.25 C 0.707031 -5.375 0.65625 -5.519531 0.65625 -5.6875 C 0.65625 -5.820312 0.695312 -5.925781 0.78125 -6 C 0.863281 -6.082031 0.96875 -6.125 1.09375 -6.125 C 1.25 -6.125 1.378906 -6.0625 1.484375 -5.9375 C 1.585938 -5.8125 1.640625 -5.664062 1.640625 -5.5 C 1.640625 -5.375 1.597656 -5.269531 1.515625 -5.1875 C 1.429688 -5.113281 1.328125 -5.078125 1.203125 -5.078125 Z M 0.828125 -3.359375 C 0.828125 -3.679688 0.78125 -3.921875 0.6875 -4.078125 C 0.601562 -4.234375 0.425781 -4.3125 0.15625 -4.3125 L -0.03125 -4.3125 L -0.03125 -4.5 L 0.828125 -4.5 C 1.066406 -4.5 1.242188 -4.46875 1.359375 -4.40625 C 1.484375 -4.34375 1.570312 -4.234375 1.625 -4.078125 C 1.675781 -3.921875 1.703125 -3.679688 1.703125 -3.359375 L 1.703125 0 L 0.828125 0 Z M 0.828125 -3.359375 "/></g></g></g><g fill="#1f763b" fill-opacity="1"><g transform="translate(87.535982, 30.627588)"><g><path d="M 2.4375 0.09375 C 2.007812 0.09375 1.644531 -0.0078125 1.34375 -0.21875 C 1.039062 -0.425781 0.8125 -0.707031 0.65625 -1.0625 C 0.507812 -1.414062 0.4375 -1.8125 0.4375 -2.25 C 0.4375 -2.6875 0.507812 -3.082031 0.65625 -3.4375 C 0.8125 -3.789062 1.035156 -4.070312 1.328125 -4.28125 C 1.617188 -4.488281 1.957031 -4.59375 2.34375 -4.59375 C 2.988281 -4.59375 3.46875 -4.410156 3.78125 -4.046875 C 4.101562 -3.691406 4.265625 -3.171875 4.265625 -2.484375 L 4.25 -2.109375 L 1.34375 -2.109375 C 1.34375 -1.566406 1.457031 -1.125 1.6875 -0.78125 C 1.914062 -0.445312 2.234375 -0.28125 2.640625 -0.28125 C 2.929688 -0.28125 3.179688 -0.34375 3.390625 -0.46875 C 3.597656 -0.601562 3.789062 -0.796875 3.96875 -1.046875 L 4.171875 -0.90625 C 3.953125 -0.5625 3.703125 -0.304688 3.421875 -0.140625 C 3.140625 0.015625 2.8125 0.09375 2.4375 0.09375 Z M 3.359375 -2.484375 C 3.359375 -3.046875 3.273438 -3.472656 3.109375 -3.765625 C 2.941406 -4.066406 2.6875 -4.21875 2.34375 -4.21875 C 2.15625 -4.21875 1.984375 -4.140625 1.828125 -3.984375 C 1.671875 -3.835938 1.550781 -3.632812 1.46875 -3.375 C 1.382812 -3.113281 1.34375 -2.816406 1.34375 -2.484375 Z M 3.359375 -2.484375 "/></g></g></g><g fill="#1f763b" fill-opacity="1"><g transform="translate(92.206567, 30.627588)"><g><path d="M 2.1875 0.09375 C 1.457031 0.09375 0.960938 -0.03125 0.703125 -0.28125 C 0.597656 -0.394531 0.53125 -0.519531 0.5 -0.65625 C 0.476562 -0.789062 0.46875 -1.003906 0.46875 -1.296875 L 0.65625 -1.296875 C 0.71875 -0.972656 0.859375 -0.722656 1.078125 -0.546875 C 1.296875 -0.367188 1.601562 -0.28125 2 -0.28125 C 2.351562 -0.28125 2.617188 -0.34375 2.796875 -0.46875 C 2.972656 -0.59375 3.0625 -0.753906 3.0625 -0.953125 C 3.0625 -1.140625 2.988281 -1.300781 2.84375 -1.4375 C 2.707031 -1.570312 2.488281 -1.695312 2.1875 -1.8125 L 1.625 -2.0625 C 1.238281 -2.21875 0.945312 -2.394531 0.75 -2.59375 C 0.5625 -2.800781 0.46875 -3.054688 0.46875 -3.359375 C 0.46875 -3.742188 0.613281 -4.046875 0.90625 -4.265625 C 1.195312 -4.484375 1.578125 -4.59375 2.046875 -4.59375 C 2.753906 -4.59375 3.234375 -4.46875 3.484375 -4.21875 C 3.597656 -4.101562 3.664062 -3.976562 3.6875 -3.84375 C 3.707031 -3.71875 3.71875 -3.503906 3.71875 -3.203125 L 3.53125 -3.203125 C 3.476562 -3.523438 3.34375 -3.773438 3.125 -3.953125 C 2.914062 -4.128906 2.617188 -4.21875 2.234375 -4.21875 C 1.941406 -4.21875 1.707031 -4.15625 1.53125 -4.03125 C 1.363281 -3.90625 1.28125 -3.742188 1.28125 -3.546875 C 1.28125 -3.210938 1.535156 -2.941406 2.046875 -2.734375 L 2.625 -2.484375 C 3.0625 -2.304688 3.378906 -2.117188 3.578125 -1.921875 C 3.773438 -1.722656 3.875 -1.46875 3.875 -1.15625 C 3.875 -0.757812 3.71875 -0.453125 3.40625 -0.234375 C 3.09375 -0.015625 2.6875 0.09375 2.1875 0.09375 Z M 2.1875 0.09375 "/></g></g></g><g fill="#1f763b" fill-opacity="1"><g transform="translate(38.801103, 50.857315)"><g><path d="M 0.484375 -2.0625 C 0.734375 -2.300781 1.035156 -2.421875 1.390625 -2.421875 C 1.753906 -2.421875 2.054688 -2.300781 2.296875 -2.0625 C 2.546875 -1.832031 2.671875 -1.546875 2.671875 -1.203125 C 2.671875 -0.859375 2.546875 -0.566406 2.296875 -0.328125 C 2.054688 -0.0976562 1.753906 0.015625 1.390625 0.015625 C 1.035156 0.015625 0.734375 -0.0976562 0.484375 -0.328125 C 0.242188 -0.566406 0.125 -0.859375 0.125 -1.203125 C 0.125 -1.546875 0.242188 -1.832031 0.484375 -2.0625 Z M 1.40625 -2.0625 C 1.164062 -2.0625 0.957031 -1.976562 0.78125 -1.8125 C 0.613281 -1.644531 0.53125 -1.441406 0.53125 -1.203125 C 0.53125 -0.960938 0.613281 -0.757812 0.78125 -0.59375 C 0.957031 -0.425781 1.160156 -0.34375 1.390625 -0.34375 C 1.628906 -0.34375 1.832031 -0.425781 2 -0.59375 C 2.175781 -0.757812 2.265625 -0.960938 2.265625 -1.203125 C 2.265625 -1.441406 2.175781 -1.644531 2 -1.8125 C 1.832031 -1.976562 1.632812 -2.0625 1.40625 -2.0625 Z M 1.40625 -2.0625 "/></g></g></g><g fill="#1f763b" fill-opacity="1"><g transform="translate(42.630297, 50.857315)"><g><path d="M 2.40625 0 L 2.015625 0 L 0.71875 -1.734375 L 0.71875 0 L 0.3125 0 L 0.3125 -2.421875 L 0.71875 -2.421875 L 2.015625 -0.6875 L 2.015625 -2.421875 L 2.40625 -2.421875 Z M 2.40625 0 "/></g></g></g><g fill="#1f763b" fill-opacity="1"><g transform="translate(46.397399, 50.857315)"><g><path d="M 0.71875 -0.375 L 1.765625 -0.375 L 1.765625 0 L 0.3125 0 L 0.3125 -2.421875 L 0.71875 -2.421875 Z M 0.71875 -0.375 "/></g></g></g><g fill="#1f763b" fill-opacity="1"><g transform="translate(49.27447, 50.857315)"><g><path d="M 0.71875 0 L 0.3125 0 L 0.3125 -2.421875 L 0.71875 -2.421875 Z M 0.71875 0 "/></g></g></g><g fill="#1f763b" fill-opacity="1"><g transform="translate(51.3512, 50.857315)"><g><path d="M 2.40625 0 L 2.015625 0 L 0.71875 -1.734375 L 0.71875 0 L 0.3125 0 L 0.3125 -2.421875 L 0.71875 -2.421875 L 2.015625 -0.6875 L 2.015625 -2.421875 L 2.40625 -2.421875 Z M 2.40625 0 "/></g></g></g><g fill="#1f763b" fill-opacity="1"><g transform="translate(55.118301, 50.857315)"><g><path d="M 2.046875 -2.046875 L 0.71875 -2.046875 L 0.71875 -1.40625 L 1.90625 -1.40625 L 1.90625 -1.03125 L 0.71875 -1.03125 L 0.71875 -0.359375 L 2.078125 -0.359375 L 2.078125 0 L 0.3125 0 L 0.3125 -2.421875 L 2.046875 -2.421875 Z M 2.046875 -2.046875 "/></g></g></g><g fill="#1f763b" fill-opacity="1"><g transform="translate(58.416237, 50.857315)"><g/></g></g><g fill="#1f763b" fill-opacity="1"><g transform="translate(60.34118, 50.857315)"><g><path d="M 1.109375 -2.4375 C 1.421875 -2.4375 1.703125 -2.351562 1.953125 -2.1875 L 1.78125 -1.828125 C 1.539062 -1.972656 1.304688 -2.046875 1.078125 -2.046875 C 0.953125 -2.046875 0.851562 -2.023438 0.78125 -1.984375 C 0.71875 -1.941406 0.6875 -1.878906 0.6875 -1.796875 C 0.6875 -1.710938 0.71875 -1.644531 0.78125 -1.59375 C 0.84375 -1.539062 0.921875 -1.5 1.015625 -1.46875 C 1.117188 -1.4375 1.226562 -1.398438 1.34375 -1.359375 C 1.457031 -1.328125 1.5625 -1.285156 1.65625 -1.234375 C 1.75 -1.191406 1.828125 -1.125 1.890625 -1.03125 C 1.953125 -0.9375 1.984375 -0.820312 1.984375 -0.6875 C 1.984375 -0.46875 1.898438 -0.296875 1.734375 -0.171875 C 1.566406 -0.046875 1.347656 0.015625 1.078125 0.015625 C 0.890625 0.015625 0.707031 -0.015625 0.53125 -0.078125 C 0.363281 -0.148438 0.21875 -0.25 0.09375 -0.375 L 0.265625 -0.71875 C 0.390625 -0.601562 0.523438 -0.515625 0.671875 -0.453125 C 0.816406 -0.398438 0.953125 -0.375 1.078125 -0.375 C 1.222656 -0.375 1.332031 -0.398438 1.40625 -0.453125 C 1.488281 -0.503906 1.53125 -0.570312 1.53125 -0.65625 C 1.53125 -0.738281 1.5 -0.804688 1.4375 -0.859375 C 1.375 -0.921875 1.289062 -0.960938 1.1875 -0.984375 C 1.09375 -1.015625 0.988281 -1.050781 0.875 -1.09375 C 0.769531 -1.132812 0.664062 -1.175781 0.5625 -1.21875 C 0.46875 -1.257812 0.390625 -1.328125 0.328125 -1.421875 C 0.265625 -1.515625 0.234375 -1.628906 0.234375 -1.765625 C 0.234375 -1.960938 0.3125 -2.125 0.46875 -2.25 C 0.632812 -2.375 0.847656 -2.4375 1.109375 -2.4375 Z M 1.109375 -2.4375 "/></g></g></g><g fill="#1f763b" fill-opacity="1"><g transform="translate(63.521824, 50.857315)"><g><path d="M 0.484375 -2.0625 C 0.734375 -2.300781 1.035156 -2.421875 1.390625 -2.421875 C 1.753906 -2.421875 2.054688 -2.300781 2.296875 -2.0625 C 2.546875 -1.832031 2.671875 -1.546875 2.671875 -1.203125 C 2.671875 -0.859375 2.546875 -0.566406 2.296875 -0.328125 C 2.054688 -0.0976562 1.753906 0.015625 1.390625 0.015625 C 1.035156 0.015625 0.734375 -0.0976562 0.484375 -0.328125 C 0.242188 -0.566406 0.125 -0.859375 0.125 -1.203125 C 0.125 -1.546875 0.242188 -1.832031 0.484375 -2.0625 Z M 1.40625 -2.0625 C 1.164062 -2.0625 0.957031 -1.976562 0.78125 -1.8125 C 0.613281 -1.644531 0.53125 -1.441406 0.53125 -1.203125 C 0.53125 -0.960938 0.613281 -0.757812 0.78125 -0.59375 C 0.957031 -0.425781 1.160156 -0.34375 1.390625 -0.34375 C 1.628906 -0.34375 1.832031 -0.425781 2 -0.59375 C 2.175781 -0.757812 2.265625 -0.960938 2.265625 -1.203125 C 2.265625 -1.441406 2.175781 -1.644531 2 -1.8125 C 1.832031 -1.976562 1.632812 -2.0625 1.40625 -2.0625 Z M 1.40625 -2.0625 "/></g></g></g><g fill="#1f763b" fill-opacity="1"><g transform="translate(67.351017, 50.857315)"><g><path d="M 0.71875 -0.375 L 1.765625 -0.375 L 1.765625 0 L 0.3125 0 L 0.3125 -2.421875 L 0.71875 -2.421875 Z M 0.71875 -0.375 "/></g></g></g><g fill="#1f763b" fill-opacity="1"><g transform="translate(70.228087, 50.857315)"><g><path d="M 2.375 -2.421875 L 2.375 -1 C 2.375 -0.6875 2.28125 -0.4375 2.09375 -0.25 C 1.90625 -0.0703125 1.644531 0.015625 1.3125 0.015625 C 0.988281 0.015625 0.734375 -0.0703125 0.546875 -0.25 C 0.359375 -0.4375 0.265625 -0.6875 0.265625 -1 L 0.265625 -2.421875 L 0.671875 -2.421875 L 0.671875 -1 C 0.671875 -0.800781 0.726562 -0.640625 0.84375 -0.515625 C 0.96875 -0.398438 1.128906 -0.34375 1.328125 -0.34375 C 1.523438 -0.34375 1.679688 -0.398438 1.796875 -0.515625 C 1.910156 -0.628906 1.96875 -0.789062 1.96875 -1 L 1.96875 -2.421875 Z M 2.375 -2.421875 "/></g></g></g><g fill="#1f763b" fill-opacity="1"><g transform="translate(73.898593, 50.857315)"><g><path d="M 1.96875 -2.046875 L 1.203125 -2.046875 L 1.203125 0 L 0.796875 0 L 0.796875 -2.046875 L 0.03125 -2.046875 L 0.03125 -2.421875 L 1.96875 -2.421875 Z M 1.96875 -2.046875 "/></g></g></g><g fill="#1f763b" fill-opacity="1"><g transform="translate(76.9309, 50.857315)"><g><path d="M 0.71875 0 L 0.3125 0 L 0.3125 -2.421875 L 0.71875 -2.421875 Z M 0.71875 0 "/></g></g></g><g fill="#1f763b" fill-opacity="1"><g transform="translate(79.007632, 50.857315)"><g><path d="M 0.484375 -2.0625 C 0.734375 -2.300781 1.035156 -2.421875 1.390625 -2.421875 C 1.753906 -2.421875 2.054688 -2.300781 2.296875 -2.0625 C 2.546875 -1.832031 2.671875 -1.546875 2.671875 -1.203125 C 2.671875 -0.859375 2.546875 -0.566406 2.296875 -0.328125 C 2.054688 -0.0976562 1.753906 0.015625 1.390625 0.015625 C 1.035156 0.015625 0.734375 -0.0976562 0.484375 -0.328125 C 0.242188 -0.566406 0.125 -0.859375 0.125 -1.203125 C 0.125 -1.546875 0.242188 -1.832031 0.484375 -2.0625 Z M 1.40625 -2.0625 C 1.164062 -2.0625 0.957031 -1.976562 0.78125 -1.8125 C 0.613281 -1.644531 0.53125 -1.441406 0.53125 -1.203125 C 0.53125 -0.960938 0.613281 -0.757812 0.78125 -0.59375 C 0.957031 -0.425781 1.160156 -0.34375 1.390625 -0.34375 C 1.628906 -0.34375 1.832031 -0.425781 2 -0.59375 C 2.175781 -0.757812 2.265625 -0.960938 2.265625 -1.203125 C 2.265625 -1.441406 2.175781 -1.644531 2 -1.8125 C 1.832031 -1.976562 1.632812 -2.0625 1.40625 -2.0625 Z M 1.40625 -2.0625 "/></g></g></g><g fill="#1f763b" fill-opacity="1"><g transform="translate(82.836827, 50.857315)"><g><path d="M 2.40625 0 L 2.015625 0 L 0.71875 -1.734375 L 0.71875 0 L 0.3125 0 L 0.3125 -2.421875 L 0.71875 -2.421875 L 2.015625 -0.6875 L 2.015625 -2.421875 L 2.40625 -2.421875 Z M 2.40625 0 "/></g></g></g><g fill="#000000" fill-opacity="1"><g transform="translate(36.975029, 43.748361)"><g><path d="M 3.765625 -7.5625 L 0.765625 -7.5625 L 1.296875 -10.234375 L 10.75 -10.234375 L 10.203125 -7.5625 L 7.203125 -7.5625 L 5.703125 0 L 2.25 0 Z M 3.765625 -7.5625 "/></g></g></g><g fill="#000000" fill-opacity="1"><g transform="translate(46.532611, 43.748361)"><g><path d="M 10.921875 -6.875 C 10.921875 -5.96875 10.679688 -5.175781 10.203125 -4.5 C 9.722656 -3.820312 9.039062 -3.316406 8.15625 -2.984375 L 9.875 0 L 6.28125 0 L 4.84375 -2.578125 L 4 -2.578125 L 3.484375 0 L 0.03125 0 L 2.078125 -10.234375 L 6.671875 -10.234375 C 8.015625 -10.234375 9.054688 -9.9375 9.796875 -9.34375 C 10.546875 -8.757812 10.921875 -7.9375 10.921875 -6.875 Z M 7.421875 -6.53125 C 7.421875 -7.226562 6.992188 -7.578125 6.140625 -7.578125 L 4.984375 -7.578125 L 4.5 -5.171875 L 5.921875 -5.171875 C 6.398438 -5.171875 6.769531 -5.289062 7.03125 -5.53125 C 7.289062 -5.769531 7.421875 -6.101562 7.421875 -6.53125 Z M 7.421875 -6.53125 "/></g></g></g><g fill="#000000" fill-opacity="1"><g transform="translate(57.42007, 43.748361)"><g><path d="M 7.484375 -1.78125 L 3.578125 -1.78125 L 2.5625 0 L -1.078125 0 L 5.4375 -10.234375 L 8.828125 -10.234375 L 11.265625 0 L 7.828125 0 Z M 7 -4.265625 L 6.515625 -6.890625 L 5 -4.265625 Z M 7 -4.265625 "/></g></g></g><g fill="#000000" fill-opacity="1"><g transform="translate(69.198982, 43.748361)"><g><path d="M 12.171875 -10.234375 L 10.125 0 L 7.28125 0 L 4.34375 -4.765625 L 3.390625 0 L 0.03125 0 L 2.078125 -10.234375 L 4.90625 -10.234375 L 7.859375 -5.46875 L 8.796875 -10.234375 Z M 12.171875 -10.234375 "/></g></g></g><g fill="#000000" fill-opacity="1"><g transform="translate(80.94867, 43.748361)"><g/></g></g><g fill="#000000" fill-opacity="1"><g transform="translate(85.332882, 43.748361)"><g><path d="M 5.84375 0.234375 C 4.800781 0.234375 3.882812 0.0390625 3.09375 -0.34375 C 2.300781 -0.726562 1.6875 -1.265625 1.25 -1.953125 C 0.8125 -2.648438 0.59375 -3.445312 0.59375 -4.34375 C 0.59375 -5.53125 0.867188 -6.585938 1.421875 -7.515625 C 1.972656 -8.441406 2.738281 -9.164062 3.71875 -9.6875 C 4.695312 -10.207031 5.8125 -10.46875 7.0625 -10.46875 C 8.050781 -10.46875 8.925781 -10.289062 9.6875 -9.9375 C 10.445312 -9.582031 11.007812 -9.078125 11.375 -8.421875 L 8.890625 -6.484375 C 8.429688 -7.273438 7.75 -7.671875 6.84375 -7.671875 C 6.3125 -7.671875 5.832031 -7.539062 5.40625 -7.28125 C 4.988281 -7.019531 4.660156 -6.648438 4.421875 -6.171875 C 4.191406 -5.703125 4.078125 -5.164062 4.078125 -4.5625 C 4.078125 -3.957031 4.269531 -3.472656 4.65625 -3.109375 C 5.039062 -2.742188 5.550781 -2.5625 6.1875 -2.5625 C 7.050781 -2.5625 7.8125 -2.957031 8.46875 -3.75 L 10.5 -1.796875 C 9.90625 -1.066406 9.226562 -0.546875 8.46875 -0.234375 C 7.71875 0.078125 6.84375 0.234375 5.84375 0.234375 Z M 5.84375 0.234375 "/></g></g></g><g fill="#000000" fill-opacity="1"><g transform="translate(96.205724, 43.748361)"><g><path d="M 5.1875 0.234375 C 4.269531 0.234375 3.476562 0.0820312 2.8125 -0.21875 C 2.144531 -0.53125 1.632812 -0.96875 1.28125 -1.53125 C 0.925781 -2.101562 0.75 -2.769531 0.75 -3.53125 C 0.75 -3.84375 0.785156 -4.203125 0.859375 -4.609375 L 1.984375 -10.234375 L 5.4375 -10.234375 L 4.328125 -4.671875 C 4.265625 -4.390625 4.234375 -4.140625 4.234375 -3.921875 C 4.234375 -3.460938 4.347656 -3.117188 4.578125 -2.890625 C 4.816406 -2.671875 5.160156 -2.5625 5.609375 -2.5625 C 6.117188 -2.5625 6.515625 -2.722656 6.796875 -3.046875 C 7.078125 -3.367188 7.296875 -3.910156 7.453125 -4.671875 L 8.5625 -10.234375 L 11.96875 -10.234375 L 10.8125 -4.453125 C 10.5 -2.910156 9.875 -1.742188 8.9375 -0.953125 C 8 -0.160156 6.75 0.234375 5.1875 0.234375 Z M 5.1875 0.234375 "/></g></g></g><g fill="#000000" fill-opacity="1"><g transform="translate(107.663132, 43.748361)"><g><path d="M 5.796875 0.234375 C 4.753906 0.234375 3.835938 0.0390625 3.046875 -0.34375 C 2.265625 -0.726562 1.660156 -1.265625 1.234375 -1.953125 C 0.804688 -2.648438 0.59375 -3.445312 0.59375 -4.34375 C 0.59375 -5.53125 0.867188 -6.585938 1.421875 -7.515625 C 1.972656 -8.453125 2.738281 -9.175781 3.71875 -9.6875 C 4.695312 -10.207031 5.804688 -10.46875 7.046875 -10.46875 C 8.085938 -10.46875 9 -10.273438 9.78125 -9.890625 C 10.570312 -9.503906 11.175781 -8.960938 11.59375 -8.265625 C 12.019531 -7.578125 12.234375 -6.785156 12.234375 -5.890625 C 12.234375 -4.703125 11.957031 -3.640625 11.40625 -2.703125 C 10.863281 -1.773438 10.101562 -1.050781 9.125 -0.53125 C 8.144531 -0.0195312 7.035156 0.234375 5.796875 0.234375 Z M 6.078125 -2.5625 C 6.628906 -2.5625 7.101562 -2.703125 7.5 -2.984375 C 7.90625 -3.265625 8.21875 -3.644531 8.4375 -4.125 C 8.65625 -4.601562 8.765625 -5.125 8.765625 -5.6875 C 8.765625 -6.289062 8.582031 -6.769531 8.21875 -7.125 C 7.863281 -7.488281 7.375 -7.671875 6.75 -7.671875 C 6.207031 -7.671875 5.734375 -7.53125 5.328125 -7.25 C 4.921875 -6.96875 4.609375 -6.585938 4.390625 -6.109375 C 4.179688 -5.628906 4.078125 -5.109375 4.078125 -4.546875 C 4.078125 -3.941406 4.253906 -3.457031 4.609375 -3.09375 C 4.960938 -2.738281 5.453125 -2.5625 6.078125 -2.5625 Z M 6.078125 -2.5625 "/></g></g></g><g fill="#000000" fill-opacity="1"><g transform="translate(120.055838, 43.748361)"><g><path d="M 12.171875 -10.234375 L 10.125 0 L 7.28125 0 L 4.34375 -4.765625 L 3.390625 0 L 0.03125 0 L 2.078125 -10.234375 L 4.90625 -10.234375 L 7.859375 -5.46875 L 8.796875 -10.234375 Z M 12.171875 -10.234375 "/></g></g></g><g fill="#000000" fill-opacity="1"><g transform="translate(131.805531, 43.748361)"><g><path d="M 7.890625 -5.390625 L 10.875 -5.390625 L 10 -0.984375 C 9.457031 -0.585938 8.832031 -0.285156 8.125 -0.078125 C 7.414062 0.128906 6.65625 0.234375 5.84375 0.234375 C 4.800781 0.234375 3.882812 0.0390625 3.09375 -0.34375 C 2.300781 -0.726562 1.6875 -1.265625 1.25 -1.953125 C 0.8125 -2.648438 0.59375 -3.445312 0.59375 -4.34375 C 0.59375 -5.53125 0.867188 -6.585938 1.421875 -7.515625 C 1.984375 -8.441406 2.757812 -9.164062 3.75 -9.6875 C 4.75 -10.207031 5.894531 -10.46875 7.1875 -10.46875 C 9.3125 -10.46875 10.859375 -9.800781 11.828125 -8.46875 L 9.359375 -6.546875 C 9.035156 -6.960938 8.6875 -7.253906 8.3125 -7.421875 C 7.945312 -7.585938 7.515625 -7.671875 7.015625 -7.671875 C 6.421875 -7.671875 5.898438 -7.539062 5.453125 -7.28125 C 5.015625 -7.019531 4.675781 -6.648438 4.4375 -6.171875 C 4.195312 -5.703125 4.078125 -5.164062 4.078125 -4.5625 C 4.078125 -3.957031 4.273438 -3.472656 4.671875 -3.109375 C 5.078125 -2.742188 5.628906 -2.5625 6.328125 -2.5625 C 6.679688 -2.5625 7.019531 -2.609375 7.34375 -2.703125 Z M 7.890625 -5.390625 "/></g></g></g></svg>